<svg width="258" height="45" viewBox="0 0 258 45" fill="none" xmlns="http://www.w3.org/2000/svg">
<mask id="mask0_310_212" style="mask-type:luminance" maskUnits="userSpaceOnUse" x="0" y="0" width="77" height="45">
<path d="M0 0H76.7975V44.7364H0V0Z" fill="white"/>
</mask>
<g mask="url(#mask0_310_212)">
<path d="M38.7055 37.2767H41.2452V39.8164H38.7055V37.2767ZM35.5561 40.4455H38.0997V42.9891H35.5561V40.4455ZM38.7055 40.4455H41.2452V42.9891H38.7055V40.4455ZM35.5561 37.2767H38.0997V39.8164H35.5561V37.2767ZM17.5839 43.3969H24.3526V22.8344L17.5839 18.9239V43.3969ZM15.6383 43.3969H16.2868V23.6189L15.6383 23.9956V43.3969ZM11.5686 43.3969H12.5316V33.6457L11.5686 33.0865V43.3969ZM6.22892 43.3969H10.2715V32.337L6.22892 30.0031V43.3969ZM28.2282 40.0416L35.4513 32.8147V3.17294L28.2282 10.3999V40.0416ZM26.9312 19.7277L25.4788 18.2754L22.2595 20.1355L24.8341 18.6482L26.2826 20.1005V41.7154L25.6496 42.3484V42.6241L26.9312 41.3426V19.7277ZM36.7483 5.90683V31.5138L38.3987 29.8594L47.7266 39.1951V16.8968L36.7483 5.90683ZM60.7902 29.8167L58.0913 31.3778V43.3969H60.7902V29.8167ZM56.7943 43.3969V30.6283L60.7902 28.3216V24.78L57.4622 19.0171L52.3051 24.1781V43.3969H56.7943ZM67.9861 43.3969H71.0462V31.8089L67.9861 30.0381V43.3969ZM62.0834 29.0672V43.3969H62.7125V29.6963L66.6852 27.3974V26.4071L62.0834 29.0672ZM49.0236 16.357V40.4921L49.6489 41.1173V16.9861L49.0236 16.357ZM42.0569 9.38633L42.6821 10.0115L47.7266 4.96706L52.6895 9.93L47.1014 4.33795L42.0569 9.38633ZM0.00388337 43.3969H4.93576V27.7585L10.2715 30.8419V25.6033L16.2868 22.1277V16.6832L20.9663 19.3899L25.6962 16.656L26.9312 17.8909V9.86398L36.7483 0.0390625V4.07L41.1404 8.46985L47.1014 2.50112L53.9866 9.39409V20.6597L57.7379 16.9045L62.0834 24.4383V27.5721L67.9861 24.1625V28.5469L72.3433 31.0633V43.3969H76.7975V44.6939H51.3886L38.3987 31.6963L25.4128 44.6939H0V43.3969H0.00388337Z" fill="black"/>
</g>
<path d="M90.0159 34.6504V41.2871L85.053 34.6504H83.5889V43.5977H85.053V36.9455L90.0043 43.5977H91.4644V34.6504H90.0159Z" fill="black"/>
<path d="M103.477 43.5977H105.057L101.822 34.6504H100.195L96.9604 43.5977H98.541L99.1817 41.7026H102.836L103.477 43.5977ZM99.6167 40.4211L101.019 36.2465L102.42 40.4211H99.6167Z" fill="black"/>
<path d="M116.98 34.6504V41.2871L112.017 34.6504H110.553V43.5977H112.017V36.9455L116.968 43.5977H118.428V34.6504H116.98Z" fill="black"/>
<path d="M130.247 34.6504H124.06V36.0057H126.429V43.5977H127.878V36.0057H130.247V34.6504Z" fill="black"/>
<path d="M141.084 35.9785V34.6504H135.955V43.5977H141.084V42.2696H137.415V39.7959H140.591V38.4522H137.415V35.9785H141.084Z" fill="black"/>
<path d="M149.936 43.7178C151.544 43.7178 152.856 42.7625 152.856 41.1509C152.856 37.9743 148.623 38.751 148.623 36.9181C148.623 36.2152 149.175 35.889 149.831 35.889C150.425 35.889 150.965 36.1569 151.365 36.6618L152.394 35.722C151.827 35.023 150.887 34.5298 149.831 34.5298C148.429 34.5298 147.159 35.4113 147.159 37.0229C147.159 39.9898 151.396 39.2597 151.396 41.1509C151.396 41.881 150.786 42.3159 149.951 42.3159C149.039 42.3159 148.355 41.8072 148.041 41.0461L146.786 41.8072C147.311 42.9256 148.503 43.7178 149.936 43.7178Z" fill="black"/>
<path d="M174.87 34.6504L171.724 41.6599L168.594 34.6504H167.025V43.5977H168.489V37.4386L171.231 43.5977H172.202L174.975 37.4231V43.5977H176.423V34.6504H174.87Z" fill="black"/>
<path d="M183.797 33.8309C184.259 33.8309 184.648 33.4426 184.648 32.996C184.648 32.5183 184.259 32.1455 183.797 32.1455C183.351 32.1455 182.962 32.5183 182.962 32.996C182.962 33.4426 183.351 33.8309 183.797 33.8309ZM183.083 43.5976H184.543V34.6503H183.083V43.5976Z" fill="black"/>
<path d="M199.03 34.6504L195.885 41.6599L192.755 34.6504H191.186V43.5977H192.65V37.4386L195.392 43.5977H196.362L199.135 37.4231V43.5977H200.584V34.6504H199.03Z" fill="black"/>
<path d="M212.595 43.5977H214.175L210.94 34.6504H209.313L206.078 43.5977H207.659L208.3 41.7026H211.954L212.595 43.5977ZM208.735 40.4211L210.137 36.2465L211.538 40.4211H208.735Z" fill="black"/>
<path d="M223.819 39.7065C224.937 39.4658 225.756 38.4833 225.756 37.2755C225.756 35.8154 224.622 34.6504 223.178 34.6504H219.671V43.5977H221.135V39.8386H222.37L224.743 43.5977H226.382L223.819 39.7065ZM221.135 38.5726V36.0057H222.999C223.76 36.0057 224.327 36.5299 224.327 37.2911C224.327 38.0522 223.76 38.5726 222.999 38.5726H221.135Z" fill="black"/>
<path d="M233.476 42.2424V34.6504H232.012V43.5977H236.622V42.2424H233.476Z" fill="black"/>
<path d="M242.373 43.5977H243.834V34.6504H242.373V43.5977Z" fill="black"/>
<path d="M255.937 43.5977H257.921L253.653 38.7046L257.622 34.6504H255.696L252.445 38.0639H251.941V34.6504H250.476V43.5977H251.941V39.3764H252.418L255.937 43.5977Z" fill="black"/>
</svg>
